<?xml version="1.0" encoding="UTF-8"?>
<svg id="Capa_1" data-name="Capa 1" xmlns="http://www.w3.org/2000/svg" viewBox="0 0 739.53 853.94">
  <defs>
    <style>
      .cls-1 {
        fill: #819e7f;
      }

      .cls-2 {
        fill: #fcfbf5;
      }
    </style>
  </defs>
  <polygon class="cls-2" points="739.53 640.46 739.53 213.49 369.77 0 0 213.49 0 640.46 369.77 853.94 739.53 640.46"/>
  <g>
    <path class="cls-1" d="m352.15,312.07c-5.39,1.53-9.05,3.18-10.98,4.96-1.93,1.78-3.28,4.17-4.04,7.17-.76,3-1.14,8.31-1.14,15.94v131.92c0,6.2.31,11.11.91,14.72.61,3.61,1.85,6.36,3.74,8.24,1.88,1.88,5.72,3.58,11.51,5.11v10.07h-78.24v-10.07c4.47-1.22,7.57-2.29,9.3-3.2,1.73-.91,3.07-2.11,4.04-3.58.97-1.47,1.68-3.71,2.14-6.71.46-3,.69-7.96.69-14.87v-74.73c0-8.24.15-17.94.46-29.13.31-11.18.61-19.11.91-23.79h-3.2c-1.22,4.07-2.52,8.06-3.89,11.97-1.37,3.92-3.94,10.9-7.7,20.97l-40.87,110.11h-26.84l-43.01-123.68c-2.54-7.02-4.78-13.98-6.71-20.89h-2.74c1.01,16.78,1.52,36.6,1.52,59.48v70.15c0,7.52.36,12.76,1.07,15.71.71,2.95,2.14,5.39,4.27,7.32,2.13,1.93,5.84,3.56,11.13,4.88v10.07h-57.65v-10.07c3.76-1.01,6.73-2.14,8.92-3.35,2.18-1.22,3.84-2.85,4.96-4.88,1.12-2.03,1.8-4.63,2.06-7.78.25-3.15.38-7.17.38-12.05v-131.92c0-7.73-.33-13.01-.99-15.86-.66-2.85-1.96-5.19-3.89-7.02-1.93-1.83-5.75-3.56-11.44-5.19v-10.07h75.8l42.24,125.21,45.75-125.21h71.53v10.07Z"/>
    <path class="cls-1" d="m443.81,493.25c0,10.98-.84,19.88-2.52,26.69-1.68,6.81-4.5,12.86-8.46,18.15-4.68,6.4-10.93,12.05-18.76,16.93-9.25,5.8-20.64,10.78-34.16,14.95l-7.62-18.76c6.2-2.74,10.8-5.34,13.8-7.78,3-2.44,5.19-5.06,6.56-7.85,1.37-2.8,2.36-6.31,2.97-10.52.61-4.22.92-10.35.92-18.38v-166.24c0-4.78-.13-8.79-.38-12.05-.26-3.25-.91-5.9-1.98-7.93-1.07-2.03-2.7-3.68-4.88-4.96-2.19-1.27-5.21-2.41-9.07-3.43v-10.07h80.07v10.07c-4.27,1.12-7.4,2.34-9.38,3.66-1.98,1.32-3.46,2.9-4.42,4.73-.97,1.83-1.65,4.17-2.06,7.02-.41,2.85-.61,7.17-.61,12.96v152.81Z"/>
    <path class="cls-1" d="m507.1,458.79c2.54,12.1,6.79,21.12,12.73,27.07,5.95,5.95,14.66,8.92,26.16,8.92,6,0,11.39-1.01,16.17-3.05,4.78-2.03,8.62-5.31,11.51-9.84,2.9-4.52,4.35-10.19,4.35-17,0-6.3-1.17-11.77-3.51-16.39-2.34-4.63-6.1-9.02-11.29-13.19-5.19-4.17-12.41-8.59-21.66-13.27-7.93-3.97-15.1-8.08-21.5-12.35-6.41-4.27-11.87-8.97-16.39-14.11-4.52-5.13-8.03-10.75-10.52-16.85-2.49-6.1-3.74-12.96-3.74-20.59,0-12.51,3.1-23.13,9.3-31.87,6.2-8.74,15.17-15.38,26.92-19.9,11.74-4.52,25.34-6.79,40.8-6.79,9.05,0,17.69.48,25.93,1.45,8.24.97,17.64,2.67,28.21,5.11v44.23h-20.89c-1.93-8.03-4.4-14.41-7.4-19.14-3-4.73-6.74-8.21-11.21-10.45-4.48-2.24-10.12-3.36-16.93-3.36-5.8,0-10.98,1.02-15.56,3.05-4.57,2.04-8.19,5.06-10.83,9.07-2.65,4.02-3.97,8.87-3.97,14.57s1.14,11.01,3.43,15.33c2.29,4.32,6.12,8.54,11.51,12.66,5.39,4.12,13.22,8.82,23.49,14.11,12.51,6.51,22.34,12.89,29.51,19.14,7.17,6.25,12.45,13.07,15.86,20.44,3.41,7.37,5.11,15.94,5.11,25.7,0,12.51-2.9,23.36-8.69,32.56-5.8,9.2-14.24,16.27-25.32,21.2-11.08,4.93-23.89,7.4-38.43,7.4-10.37,0-21.18-.59-32.41-1.75-11.24-1.17-21.78-2.87-31.65-5.11v-46.97h20.89Z"/>
  </g>
</svg>